<?xml version="1.0" standalone="no"?><!DOCTYPE svg PUBLIC "-//W3C//DTD SVG 1.1//EN" "http://www.w3.org/Graphics/SVG/1.1/DTD/svg11.dtd"><svg t="1615863143987" class="icon" viewBox="0 0 1024 1024" version="1.1" xmlns="http://www.w3.org/2000/svg" p-id="724" xmlns:xlink="http://www.w3.org/1999/xlink" width="200" height="200"><defs><style type="text/css"></style></defs><path d="M574.683429 963.145143l-371.785143-2.048a34.157714 34.157714 0 0 1-33.645715-38.765714l34.157715-251.904C142.482286 580.242286 111.542857 494.884571 111.542857 415.305143v-29.037714c0-179.2 162.962286-325.339429 363.446857-325.485715A393.508571 393.508571 0 0 1 730.477714 153.6a272.384 272.384 0 0 1 93.842286 123.830857c13.019429 32.621714 20.187429 67.291429 21.211429 102.4a247.442286 247.442286 0 0 1-4.608 42.057143c-3.218286 19.017143-5.924571 35.474286 0 47.323429l0.658285 1.316571c4.608 10.752 18.432 23.990857 30.500572 35.693714 5.412571 5.12 10.971429 10.459429 16.091428 15.945143 16.018286 11.922286 29.476571 31.817143 23.259429 54.857143-7.606857 28.233143-36.864 37.814857-68.242286 41.472l-6.582857 16.091429a704 704 0 0 1-24.868571 57.636571c13.604571 83.456 4.315429 133.851429-27.721143 149.723429a88.429714 88.429714 0 0 1-35.474286 6.656c-27.282286 1.170286-64.512 0-100.498286-0.512l-25.088-0.512-14.555428 86.674285a34.157714 34.157714 0 0 1-33.645715 28.891429z m-332.8-70.070857l303.542857 1.755428 13.531428-87.478857a34.157714 34.157714 0 0 1 34.084572-28.964571c15.725714 0 35.181714 0.438857 55.808 0.877714 34.157714 0.731429 72.192 1.609143 97.353143 0.512h1.243428c1.974857-29.915429 0-59.977143-5.851428-89.380571a34.157714 34.157714 0 0 1 8.484571-29.257143c4.973714-8.484571 16.384-37.010286 22.674286-52.662857 17.115429-42.130286 22.893714-56.685714 46.445714-57.197715h1.682286a175.689143 175.689143 0 0 1-42.057143-53.979428c-14.482286-31.012571-9.216-62.244571-4.973714-87.332572 2.048-10.166857 3.291429-20.48 3.657142-30.72a234.642286 234.642286 0 0 0-17.042285-77.312l-0.585143-1.682285a201.874286 201.874286 0 0 0-71.68-93.257143l-1.462857-1.170286a325.193143 325.193143 0 0 0-211.748572-76.8c-162.742857 0-295.204571 115.419429-295.204571 257.170286v29.037714c0 67.145143 30.208 145.627429 87.405714 226.962286a34.157714 34.157714 0 0 1 5.851429 24.356571l-31.158857 226.523429z" p-id="725" fill="#13227a"></path><path d="M605.842286 493.933714h-4.754286a34.157714 34.157714 0 0 1 0-68.242285c48.566857 0 48.566857-23.478857 48.566857-31.158858 0-71.899429-30.208-71.899429-52.224-71.899428a41.106286 41.106286 0 0 0-27.062857 10.093714 34.157714 34.157714 0 0 1-56.32-28.16v-2.706286a41.691429 41.691429 0 0 0-46.08-41.691428 42.642286 42.642286 0 0 0-32.329143 23.405714 37.449143 37.449143 0 0 0-3.510857 27.794286 34.157714 34.157714 0 0 1-61.586286 26.770286 41.472 41.472 0 0 0-36.571428-18.285715 43.739429 43.739429 0 0 0-39.716572 44.690286c0 33.792 27.355429 61.220571 61.147429 61.293714H358.4a34.157714 34.157714 0 1 1 0 68.242286h-3.072a129.609143 129.609143 0 0 1-129.389714-129.609143c-1.097143-59.830857 45.348571-109.714286 105.179428-112.859428 14.043429-0.731429 28.16 1.389714 41.472 5.997714a109.494857 109.494857 0 0 1 200.557715-0.512c7.899429-1.755429 16.091429-2.706286 24.137142-2.706286 44.982857 0 120.539429 18.212571 120.539429 140.141714 0 58.002286-42.642286 96.256-108.470857 99.254858l-3.510857 0.146285z" p-id="726" fill="#13227a"></path></svg>